<svg xmlns="http://www.w3.org/2000/svg" xmlns:xlink="http://www.w3.org/1999/xlink" width="76" height="76" viewBox="0 0 76 76">
  <defs>
    <clipPath id="clip-fb">
      <rect width="76" height="76"/>
    </clipPath>
  </defs>
  <g id="fb" clip-path="url(#clip-fb)">
    <g id="Group_807" data-name="Group 807" transform="translate(27 18)">
      <path id="facebook" d="M124.119,39.808h-6.375a1.933,1.933,0,0,1-1.931-1.931V23.5h-3.721a1.934,1.934,0,0,1-1.931-1.931V15.405a1.933,1.933,0,0,1,1.931-1.931h3.719V10.389a10.506,10.506,0,0,1,2.778-7.526A10.032,10.032,0,0,1,125.968,0l4.861.008a1.934,1.934,0,0,1,1.928,1.931V7.66a1.933,1.933,0,0,1-1.928,1.931h-3.273c-1,0-1.253.2-1.307.261-.089.1-.2.389-.2,1.183v2.439h4.53a1.962,1.962,0,0,1,.956.243,1.937,1.937,0,0,1,.994,1.689v6.161A1.933,1.933,0,0,1,130.6,23.5H126.05V37.876a1.934,1.934,0,0,1-1.931,1.931Zm-5.972-2.332h5.569V22.453a1.291,1.291,0,0,1,1.289-1.289h5.188V15.808h-5.188a1.291,1.291,0,0,1-1.289-1.289V11.04a3.987,3.987,0,0,1,.777-2.727,3.955,3.955,0,0,1,3.056-1.051h2.871V2.341l-4.455-.009c-4.82,0-7.818,3.087-7.818,8.055v4.13a1.291,1.291,0,0,1-1.289,1.289H112.5v5.356h4.362a1.291,1.291,0,0,1,1.289,1.289ZM130.829,2.342Z" transform="translate(-110.16 0)" fill="#fff"/>
    </g>
  </g>
</svg>
