<svg xmlns="http://www.w3.org/2000/svg" xmlns:xlink="http://www.w3.org/1999/xlink" width="76" height="76" viewBox="0 0 76 76">
  <defs>
    <clipPath id="clip-ig">
      <rect width="76" height="76"/>
    </clipPath>
  </defs>
  <g id="ig" clip-path="url(#clip-ig)">
    <g id="Group_808" data-name="Group 808" transform="translate(20.681 20.681)">
      <g id="instagram" transform="translate(0 0)">
        <path id="Path_1049" data-name="Path 1049" d="M23.614,0H10.625A10.825,10.825,0,0,0-.2,10.825v12.99A10.825,10.825,0,0,0,10.625,34.639h12.99A10.825,10.825,0,0,0,34.439,23.814V10.825A10.825,10.825,0,0,0,23.614,0Zm7.577,23.814a7.585,7.585,0,0,1-7.577,7.577H10.625a7.585,7.585,0,0,1-7.577-7.577V10.825a7.585,7.585,0,0,1,7.577-7.577h12.99a7.585,7.585,0,0,1,7.577,7.577Z" transform="translate(0.2)" fill="#fff"/>
        <path id="Path_1050" data-name="Path 1050" d="M141.59,128a8.66,8.66,0,1,0,8.66,8.66A8.66,8.66,0,0,0,141.59,128Zm0,14.072A5.412,5.412,0,1,1,147,136.66,5.412,5.412,0,0,1,141.59,142.072Z" transform="translate(-123.923 -119.34)" fill="#fff"/>
        <ellipse id="Ellipse_56" data-name="Ellipse 56" cx="1.154" cy="1.154" rx="1.154" ry="1.154" transform="translate(25.821 6.856)" fill="#fff"/>
      </g>
    </g>
  </g>
</svg>
