<svg xmlns="http://www.w3.org/2000/svg" xmlns:xlink="http://www.w3.org/1999/xlink" width="76" height="76" viewBox="0 0 76 76">
  <defs>
    <clipPath id="clip-li">
      <rect width="76" height="76"/>
    </clipPath>
  </defs>
  <g id="li" clip-path="url(#clip-li)">
    <g id="linkedin-icon-2" transform="translate(20.739 20.739)">
      <path id="Path_1126" data-name="Path 1126" d="M2.551-1.5h29.42a4.017,4.017,0,0,1,4.051,3.973V32.05a4.017,4.017,0,0,1-4.051,3.973H2.551A4.017,4.017,0,0,1-1.5,32.051V2.473h0A4.017,4.017,0,0,1,2.551-1.5Zm29.42,34.523a1.015,1.015,0,0,0,1.051-.973V2.473A1.016,1.016,0,0,0,31.971,1.5H2.551A1.016,1.016,0,0,0,1.5,2.473V32.051a1.015,1.015,0,0,0,1.051.972Z" fill="#fff"/>
      <path id="Path_1127" data-name="Path 1127" d="M42.7,66.462V50.92H37.535V66.462H42.7ZM40.119,48.8a2.694,2.694,0,1,0,.034-5.371,2.693,2.693,0,1,0-.068,5.37h.033ZM45.56,66.462h5.166V57.784a3.538,3.538,0,0,1,.17-1.26,2.827,2.827,0,0,1,2.651-1.89c1.869,0,2.617,1.425,2.617,3.515v8.314h5.165V57.551c0-4.774-2.548-7-5.947-7a5.147,5.147,0,0,0-4.69,2.618h.034V50.921H45.56c.067,1.458,0,15.542,0,15.542Z" transform="translate(-32.209 -37.572)" fill="#fff"/>
    </g>
  </g>
</svg>
