<svg xmlns="http://www.w3.org/2000/svg" viewBox="0 0 2989.98 495.79"><title>ha-wordmark-bw-black-SVG</title><g id="Layer_2" data-name="Layer 2"><g id="Logos"><path d="M802.38,364.27a147.92,147.92,0,0,1-20.45,7.63,195.08,195.08,0,0,1-55.48,7.71q-62.69,0-98-33.83t-35.33-92q0-38.31,17.17-67.66t48.26-45.28q31.08-15.92,71.89-15.92a177.86,177.86,0,0,1,53,8,151,151,0,0,1,19,7.25l.19,73.85a102.11,102.11,0,0,0-30.1-16.17q-17.65-6.22-33.08-6.22-26.86,0-41,14.92t-14.18,45.28q0,30.36,14.18,45.77t41,15.43q15.4,0,33.08-6.22a95.88,95.88,0,0,0,30.1-16.67Z"/><path d="M2733.91,364.27a147.44,147.44,0,0,1-20.45,7.63,195,195,0,0,1-55.47,7.71q-62.7,0-98-33.83t-35.32-92q0-38.31,17.16-67.66a115.77,115.77,0,0,1,48.26-45.28q31.09-15.92,71.9-15.92a177.79,177.79,0,0,1,53,8,150.46,150.46,0,0,1,19,7.25l.2,73.85a102.24,102.24,0,0,0-30.1-16.17q-17.67-6.22-33.09-6.22-26.86,0-41,14.92t-14.18,45.28q0,30.36,14.18,45.77t41,15.43q15.42,0,33.09-6.22a96,96,0,0,0,30.1-16.67Z"/><path d="M1374.69,128.76V375.63h-87.07V342.3q-10.45,17.42-30.6,27.36t-44.53,9.95q-31.35,0-56-16.16T1118,317.92Q1104,288.57,1104,250.75t13.68-66.42q13.68-28.59,38.31-44t56.47-15.42a98.18,98.18,0,0,1,43,9.45q19.65,9.46,30.6,25.38v-31Zm-99.51,168.76q12.43-15.91,12.44-45.77,0-29.35-12.44-45t-35.82-15.67q-22.89,0-35.33,15.42t-12.44,44.28q0,29.87,12.69,46.27t35.08,16.42Q1262.73,313.44,1275.18,297.52Z"/><path d="M564.63,128.76V375.63H477.56V342.3Q467.12,359.72,447,369.66t-44.53,9.95q-31.35,0-56-16.16t-38.55-45.53Q294,288.57,294,250.75t13.68-66.42q13.68-28.59,38.31-44t56.47-15.42a98.14,98.14,0,0,1,43,9.45q19.65,9.46,30.6,25.38v-31Zm-99.5,168.76q12.42-15.91,12.43-45.77,0-29.35-12.43-45T429.3,191.05q-22.89,0-35.32,15.42t-12.44,44.28q0,29.87,12.69,46.27t35.07,16.42Q452.68,313.44,465.13,297.52Z"/><path d="M2344.21,150.75q20.64,25.88,20.65,79.61V375.63H2276.3V232.84q0-21.37-6.47-30.84t-21.39-9.46q-18.42,0-28.11,12.94t-9.71,36.82V375.63h-88.56V232.84q0-21.37-6.47-30.84t-21.39-9.46q-18.4,0-27.86,12.94t-9.45,36.82V375.63h-88.56V130.85h86.07V161.7q24.38-36.81,74.63-36.82,52.72,0,71.15,43.29a91,91,0,0,1,34.08-31.85,96.22,96.22,0,0,1,46.51-11.44Q2323.57,124.88,2344.21,150.75Z"/><path d="M2815.85,372.15q-29.85-7.45-50.25-21.89l22.39-60.2a176.7,176.7,0,0,0,45.27,20.65,167.57,167.57,0,0,0,48.76,7.71q14.43,0,22.39-4.23c5.3-2.81,8-6.72,8-11.69a11,11,0,0,0-5.72-9.95q-5.73-3.48-23.14-7.47l-39.3-8.95q-37.32-8.46-53.73-24.88t-16.42-46.77A66.42,66.42,0,0,1,2788,162.94q13.92-18.15,39.05-28.11t57-10a184.54,184.54,0,0,1,52.49,7.71A180.3,180.3,0,0,1,2984,154.23L2961.13,212a187.94,187.94,0,0,0-40.05-19.16q-20.16-6.71-38.07-6.71-14.43,0-22.38,4.47t-8,12.94q0,5,5,8.21t17.41,6.22l41.3,9.45q38.8,8.46,56.22,26.12t17.41,48q0,36.33-29.1,57.22T2881,379.61Q2845.69,379.61,2815.85,372.15Z"/><path d="M2407.61,375.63V130.85h88.56V375.63Z"/><rect x="2407.61" width="88.56" height="88.56"/><path d="M229.86,150.5q21.39,26.13,21.39,79.36V375.14H162.69V233.84Q162.69,212,155,202t-23.13-9.95q-19.9,0-31.6,12.68T88.56,238.81V375.14H0V44.41H88.56v115.3a87.11,87.11,0,0,1,32.84-26.37q19.4-9,43.28-9Q208.47,124.38,229.86,150.5Z"/><rect y="415.69" width="88.56" height="80.1"/><path d="M1120.35,375.63h-107l-82.09-104v104H842.73V44.9h88.56V231.35l80.6-100h105l-95.53,116.42Z"/><rect x="842.73" y="415.69" width="88.56" height="80.1"/><path d="M1675.32,44.9V375.63h-88.56V342.3q-10.46,17.42-30.6,27.36t-44.53,9.95q-31.35,0-56-16.16t-38.56-45.53q-13.93-29.35-13.93-67.17t13.68-66.42q13.68-28.59,38.31-44t56.47-15.42a98.14,98.14,0,0,1,43,9.45q19.65,9.46,30.6,25.38V44.9Zm-101,252.62q12.42-15.91,12.44-45.77,0-29.35-12.44-45t-35.82-15.67q-22.89,0-35.33,15.42t-12.44,44.28q0,29.87,12.69,46.27t35.08,16.42Q1561.87,313.44,1574.32,297.52Z"/><rect x="1586.76" y="415.69" width="88.56" height="80.1"/><path d="M1938.47,293c0,26.59-20.07,52.53-40.66,66.17s-44.16,20.46-70.69,20.46q-55.86,0-90.77-32.74t-34.92-91.41q0-57.75,33.22-91.18t87-33.43q56.3,0,87.61,34.79t31.32,94.82v8.64h-162.1c0,34.56,13.41,51.85,45.57,51.85,16.65,0,36.07-7,39.41-28Zm-158.75-71.63H1869a43.63,43.63,0,0,0-15.23-26.6,43,43,0,0,0-28.36-10.24q-17.36,0-29.83,9.55T1779.72,221.35Z"/></g></g></svg>