<svg xmlns="http://www.w3.org/2000/svg" viewBox="0 0 768.64 136.16"><g id="Layer_2" data-name="Layer 2"><g id="Layer_1-2" data-name="Layer 1"><g id="Layer_2-2" data-name="Layer 2"><g id="Layer_1-2-2" data-name="Layer 1-2"><g id="Layer_2-2-2" data-name="Layer 2-2"><g id="Logos"><path d="M0,13.73A13.41,13.41,0,0,1,3.84,3.84,13.41,13.41,0,0,1,13.73,0H31.49V16.15H20.59q-3.63,0-3.63,4V116q0,4,3.63,4h10.9v16.14H13.73a13.41,13.41,0,0,1-9.89-3.83A13.37,13.37,0,0,1,0,122.42Z"/><path d="M74.8,115.16H57.86V21H74.8v38.2h2.43a20.38,20.38,0,0,1,7.53-9.35A21.71,21.71,0,0,1,97,46.55a24.88,24.88,0,0,1,9.15,1.62A19.76,19.76,0,0,1,113.41,53a22.45,22.45,0,0,1,4.85,8.27A36.47,36.47,0,0,1,120,73.19v42H103v-38Q103,70.1,99.58,66t-9.88-4.1q-7.55,0-11.24,5t-3.7,13.52Z"/><path d="M183,105.47q-2.7,6.33-7.54,9a23.36,23.36,0,0,1-11.3,2.62,28.43,28.43,0,0,1-11.36-2.28,27,27,0,0,1-9.4-6.8A32.93,32.93,0,0,1,137,97.27a41.06,41.06,0,0,1-2.36-14.4V80.72a41.9,41.9,0,0,1,2.29-14.26,33.24,33.24,0,0,1,6.19-10.76,26.44,26.44,0,0,1,20.18-9.15q7.13,0,11.5,2.43a17,17,0,0,1,6.93,7.53h2.42V48.44h17V95q0,4,3.63,4h2.55v16.14h-11.6a10.56,10.56,0,0,1-7.47-2.69,9.11,9.11,0,0,1-2.89-7Zm-15.07-4.57A15.19,15.19,0,0,0,179.73,96q4.44-4.91,4.44-13.38V81q0-8.48-4.44-13.38t-11.84-4.91a15.2,15.2,0,0,0-11.84,4.91q-4.44,4.91-4.44,13.38v1.6q0,8.48,4.44,13.38a15.2,15.2,0,0,0,11.84,4.91Z"/><path d="M285.72,90.68a32.17,32.17,0,0,1-10.83,19.1q-8.53,7.26-22.8,7.26a40.66,40.66,0,0,1-13.78-2.28,32.36,32.36,0,0,1-11.1-6.6,30.13,30.13,0,0,1-7.4-10.62,36.45,36.45,0,0,1-2.69-14.4V81.53A37.39,37.39,0,0,1,219.81,67a32.32,32.32,0,0,1,7.46-11,32.65,32.65,0,0,1,11.17-7,38.08,38.08,0,0,1,13.65-2.43q14,0,22.67,7.27a31.9,31.9,0,0,1,11,19.1L269,77.22A17.43,17.43,0,0,0,263.93,67q-4.31-4.31-12.11-4.3A17.66,17.66,0,0,0,245,64a16.92,16.92,0,0,0-5.65,3.84,18.24,18.24,0,0,0-3.83,6,21.63,21.63,0,0,0-1.41,8v.81a20.58,20.58,0,0,0,1.41,7.87A16,16,0,0,0,245,99.76a20.49,20.49,0,0,0,6.86,1.14q7.8,0,11.91-3.9A18.6,18.6,0,0,0,269,86.51Z"/><path d="M317.88,72.92h3.22l17.76-24.48h18.57v.8L335.9,79.78V82.2l23.68,32.15v.81H340.21L321.1,89.06h-3.22v26.1H300.93V21h16.95Z"/><path d="M365.36,48.44h18.29l15.74,58.65h2.42l15.74-58.65h18.3l-19.11,66.72H384.46Z"/><path d="M444.46,99h22.6V64.58h-21V48.44H484V99h19.37v16.14H444.46Zm43.72-70.36a12.89,12.89,0,0,1-1,5.05,12.41,12.41,0,0,1-2.76,4,13.49,13.49,0,0,1-4.1,2.69,12.19,12.19,0,0,1-4.91,1,12,12,0,0,1-5-1,13.53,13.53,0,0,1-4-2.69,12.22,12.22,0,0,1-2.75-4,13.08,13.08,0,0,1,0-10.09,12.38,12.38,0,0,1,2.75-4,13.53,13.53,0,0,1,4-2.69,12.78,12.78,0,0,1,9.91,0,13.49,13.49,0,0,1,4.1,2.69,12.57,12.57,0,0,1,2.76,4,12.89,12.89,0,0,1,1,5.05Z"/><path d="M510.77,99h23.41V37.14h-22.6V21h39.55V99h21.79v16.14H510.77Z"/><path d="M582.06,99h23.41V37.14h-22.6V21h39.55V99h21.79v16.14H582.06Z"/><path d="M670.31,87.31a13.08,13.08,0,0,0,1.41,5.45,13.52,13.52,0,0,0,3.5,4.31,16.6,16.6,0,0,0,5.11,2.82,18.74,18.74,0,0,0,6.12,1c4.21,0,7.43-.74,9.68-2.22a13.32,13.32,0,0,0,4.88-5.3l14.53,8.07a28,28,0,0,1-3.37,5.31,23.54,23.54,0,0,1-5.58,5,31.18,31.18,0,0,1-8.34,3.76,39.91,39.91,0,0,1-11.5,1.48A37.28,37.28,0,0,1,673,114.62a30.38,30.38,0,0,1-10.7-7,31.64,31.64,0,0,1-7-11.17,42,42,0,0,1-2.49-14.93v-.81a36.3,36.3,0,0,1,2.62-14,31.71,31.71,0,0,1,7.2-10.7,33.07,33.07,0,0,1,10.69-7,34.5,34.5,0,0,1,13.12-2.49,33.39,33.39,0,0,1,14.8,3,31.82,31.82,0,0,1,10.22,7.67,30.12,30.12,0,0,1,5.92,10.22,33.83,33.83,0,0,1,1.88,10.83v9Zm16-25.42q-6.46,0-10.5,3.29a15,15,0,0,0-5.24,7.61H702A11.89,11.89,0,0,0,697,65a17.68,17.68,0,0,0-10.69-3.12Z"/><path d="M768.63,122.42a13.12,13.12,0,0,1-12.49,13.72q-.61,0-1.23,0H737.16V120H748q3.63,0,3.63-4V20.19q0-4-3.63-4H737.16V0h17.75a13.41,13.41,0,0,1,9.89,3.83,13.41,13.41,0,0,1,3.83,9.89Z"/></g></g></g></g></g></g></svg>