<svg xmlns="http://www.w3.org/2000/svg" xmlns:xlink="http://www.w3.org/1999/xlink" width="152" height="152" viewBox="0 0 152 152">
  <defs>
    <clipPath id="clip-people">
      <rect width="152" height="152"/>
    </clipPath>
  </defs>
  <g id="people" clip-path="url(#clip-people)">
    <path id="Path_1396" data-name="Path 1396" d="M87.773,383.5a20.71,20.71,0,0,1-3.54-.305,16.165,16.165,0,0,1-9.123-4.188l-.043-.042a14.912,14.912,0,0,1-3.84-7.28l0-.02a21.113,21.113,0,0,1-.692-5.729,14.024,14.024,0,0,1,3.05-8.692l.026-.031a15.8,15.8,0,0,1,11.039-5.337,18.068,18.068,0,0,1,9.065,1.434,1,1,0,0,1-.805,1.831,16.068,16.068,0,0,0-8.083-1.273l-.051,0a13.8,13.8,0,0,0-9.65,4.647,12.075,12.075,0,0,0-2.591,7.468,19.221,19.221,0,0,0,.634,5.2l.018.075a12.914,12.914,0,0,0,3.308,6.3,14.072,14.072,0,0,0,8,3.652l.06.009a18.67,18.67,0,0,0,6.45,0,1,1,0,0,1,.345,1.97A20.7,20.7,0,0,1,87.773,383.5Z" transform="translate(-36.207 -315.696)" fill="#191717"/>
    <path id="Path_1397" data-name="Path 1397" d="M78.195,415.636H59.267v-6.462c0-2.709-.022-4.816-.039-6.509-.048-4.665-.064-6.237.512-8.4l.007-.026a22.776,22.776,0,0,1,5.462-9.359,24.922,24.922,0,0,1,9.912-7.352,1,1,0,0,1,.763,1.849,23.116,23.116,0,0,0-9.187,6.841l-.035.038a20.768,20.768,0,0,0-4.992,8.537c-.5,1.9-.489,3.286-.442,7.857.017,1.7.039,3.81.039,6.53v4.462H78.195a1,1,0,0,1,0,2Z" transform="translate(-36.207 -315.696)" fill="#191717"/>
    <path id="Ellipse_111" data-name="Ellipse 111" d="M18.321-1A19.315,19.315,0,0,1,31.983,31.983,19.321,19.321,0,1,1,10.8.519,19.2,19.2,0,0,1,18.321-1Zm0,36.642A17.321,17.321,0,0,0,30.569,6.073a17.321,17.321,0,0,0-24.5,24.5A17.208,17.208,0,0,0,18.321,35.642Z" transform="translate(57.416 37.02)" fill="#191717"/>
    <path id="Path_1398" data-name="Path 1398" d="M111.881,432.506H77.667V408.2l.028-.117a35.851,35.851,0,0,1,13.039-19.979l.011-.008a33.922,33.922,0,0,1,7.892-4.375,1,1,0,0,1,.729,1.863,31.92,31.92,0,0,0-7.421,4.113,33.85,33.85,0,0,0-12.277,18.744v22.06h32.214a1,1,0,0,1,0,2Z" transform="translate(-36.207 -315.696)" fill="#191717"/>
    <path id="Path_1399" data-name="Path 1399" d="M146.142,432.506H111.881a1,1,0,1,1,0-2h32.261V408.447A33.847,33.847,0,0,0,131.818,389.7a31.883,31.883,0,0,0-7.422-4.113,1,1,0,0,1,.728-1.863,33.882,33.882,0,0,1,7.892,4.375l.009.007a35.847,35.847,0,0,1,13.087,19.979l.029.117Z" transform="translate(-36.207 -315.696)" fill="#191717"/>
    <path id="Path_1400" data-name="Path 1400" d="M135.331,382.477a20.711,20.711,0,0,1-3.57-.311,1,1,0,1,1,.344-1.97,18.67,18.67,0,0,0,6.449,0l.059-.009a14.193,14.193,0,0,0,8.056-3.725,13.15,13.15,0,0,0,3.31-6.3L150,370.1a19.349,19.349,0,0,0,.63-5.207,12.123,12.123,0,0,0-2.586-7.474,13.8,13.8,0,0,0-9.663-4.646l-.046,0a16.14,16.14,0,0,0-8.144,1.347,1,1,0,0,1-.821-1.824,18.143,18.143,0,0,1,9.132-1.517,15.8,15.8,0,0,1,11.057,5.337l.027.032a14.071,14.071,0,0,1,3.043,8.695,21.239,21.239,0,0,1-.687,5.737l-.005.021a15.149,15.149,0,0,1-3.832,7.263l-.04.039a16.1,16.1,0,0,1-9.192,4.272A20.7,20.7,0,0,1,135.331,382.477Z" transform="translate(-36.207 -315.696)" fill="#191717"/>
    <path id="Path_1401" data-name="Path 1401" d="M164.337,415.636H145.409a1,1,0,0,1,0-2h16.928v-4.462c0-2.755.022-4.885.04-6.6.047-4.527.061-5.9-.428-7.792a20.939,20.939,0,0,0-5.008-8.537l-.034-.037a27.436,27.436,0,0,0-10.133-7.251,1,1,0,0,1,.762-1.849,29.448,29.448,0,0,1,10.859,7.764,22.948,22.948,0,0,1,5.476,9.356l.01.034c.561,2.156.545,3.713.5,8.333-.018,1.707-.04,3.831-.04,6.576Z" transform="translate(-36.207 -315.696)" fill="#191717"/>
  </g>
</svg>
