<svg xmlns="http://www.w3.org/2000/svg" xmlns:xlink="http://www.w3.org/1999/xlink" width="152" height="152" viewBox="0 0 152 152">
  <defs>
    <clipPath id="clip-prize">
      <rect width="152" height="152"/>
    </clipPath>
  </defs>
  <g id="prize" clip-path="url(#clip-prize)">
    <path id="Path_1422" data-name="Path 1422" d="M196.361,305.724h0a18.492,18.492,0,0,1-7.5-1.726A29.121,29.121,0,0,1,182,299.59a38.843,38.843,0,0,1-9.929-12.966,21.741,21.741,0,0,1-2.105-7.767,8.826,8.826,0,0,1,1.877-6.4,8.924,8.924,0,0,1,6.076-2.835,27.76,27.76,0,0,1,10.222,1.285,1,1,0,0,1-.548,1.924,25.851,25.851,0,0,0-9.462-1.22,7.016,7.016,0,0,0-4.771,2.149,6.915,6.915,0,0,0-1.4,5,19.755,19.755,0,0,0,1.926,7.031,36.773,36.773,0,0,0,9.4,12.273,27.129,27.129,0,0,0,6.389,4.109,16.513,16.513,0,0,0,6.684,1.552,1,1,0,0,1,0,2Z" transform="translate(-139.948 -234.994)"/>
    <path id="Path_1423" data-name="Path 1423" d="M194.47,299.935h-.03a13.156,13.156,0,0,1-5.386-1.431,21.256,21.256,0,0,1-4.845-3.351,26.774,26.774,0,0,1-6.716-9.388,13.033,13.033,0,0,1-1.075-4.8,5.457,5.457,0,0,1,1.418-3.964,6.125,6.125,0,0,1,4.538-1.629,21.634,21.634,0,0,1,7.35,1.6,1,1,0,0,1-.7,1.875c-4.834-1.792-8.3-1.952-9.757-.449-1.168,1.2-1.141,3.615.076,6.615a24.708,24.708,0,0,0,6.2,8.656c2.951,2.667,6.13,4.182,8.95,4.267a1,1,0,0,1-.029,2Z" transform="translate(-139.948 -234.994)"/>
    <path id="Path_1424" data-name="Path 1424" d="M235.29,305.724a1,1,0,0,1,0-2,16.513,16.513,0,0,0,6.684-1.552,27.129,27.129,0,0,0,6.389-4.109,36.774,36.774,0,0,0,9.4-12.273,19.755,19.755,0,0,0,1.926-7.031,6.915,6.915,0,0,0-1.4-5,7.016,7.016,0,0,0-4.771-2.149,25.846,25.846,0,0,0-9.462,1.22,1,1,0,0,1-.548-1.924,27.761,27.761,0,0,1,10.222-1.285,8.924,8.924,0,0,1,6.076,2.835,8.826,8.826,0,0,1,1.877,6.395,21.742,21.742,0,0,1-2.105,7.767,38.844,38.844,0,0,1-9.929,12.967A29.122,29.122,0,0,1,242.787,304a18.492,18.492,0,0,1-7.5,1.726Z" transform="translate(-139.948 -234.994)"/>
    <path id="Path_1425" data-name="Path 1425" d="M237.181,299.935a1,1,0,0,1-.029-2c2.82-.084,6-1.6,8.95-4.267a24.71,24.71,0,0,0,6.2-8.656c1.217-3,1.244-5.41.076-6.615-1.458-1.5-4.923-1.343-9.757.449a1,1,0,1,1-.7-1.875,21.605,21.605,0,0,1,7.35-1.6A6.125,6.125,0,0,1,253.817,277a5.457,5.457,0,0,1,1.418,3.964,13.034,13.034,0,0,1-1.075,4.8,26.775,26.775,0,0,1-6.716,9.388A21.255,21.255,0,0,1,242.6,298.5a13.155,13.155,0,0,1-5.386,1.431Z" transform="translate(-139.948 -234.994)"/>
    <g id="Group_803" data-name="Group 803" transform="translate(-139.948 -234.994)">
      <path id="Path_1427" data-name="Path 1427" d="M209.711,335.942a1,1,0,0,1-.982-1.2c.027-.136.052-.275.077-.422a6.829,6.829,0,0,1,.456-1.683,20.925,20.925,0,0,0,1.995-8.915,1,1,0,0,1,.99-1.01h.01a1,1,0,0,1,1,.99,22.881,22.881,0,0,1-2.171,9.756,5.134,5.134,0,0,0-.309,1.208c-.027.152-.054.308-.086.468A1,1,0,0,1,209.711,335.942Z"/>
      <path id="Path_1428" data-name="Path 1428" d="M221.973,335.942a1,1,0,0,1-.979-.8c-.033-.163-.061-.323-.088-.478a5.108,5.108,0,0,0-.307-1.2,22.839,22.839,0,0,1-2.171-9.756,1,1,0,1,1,2,.018,20.884,20.884,0,0,0,1.994,8.916,6.8,6.8,0,0,1,.454,1.675c.026.149.051.29.079.429a1,1,0,0,1-.981,1.2Z"/>
    </g>
    <path id="Path_1429" data-name="Path 1429" d="M188.752,264.994h54.177a1,1,0,0,1,1,1.028c0,.136-.1,3.383-.632,8.3a122.465,122.465,0,0,1-3.329,18.23c-2.1,7.757-4.886,13.954-8.272,18.419-4.333,5.715-9.661,8.612-15.834,8.612s-11.5-2.9-15.84-8.612c-3.389-4.464-6.177-10.661-8.287-18.418a120.02,120.02,0,0,1-3.344-18.23c-.538-4.914-.635-8.161-.639-8.3a1,1,0,0,1,1-1.028Zm53.133,2H189.8a127.639,127.639,0,0,0,3.877,25.06c2.043,7.5,4.718,13.461,7.95,17.715a21.342,21.342,0,0,0,6.224,5.687,16.189,16.189,0,0,0,16.033,0,21.329,21.329,0,0,0,6.222-5.7c3.23-4.259,5.9-10.225,7.935-17.734A127.516,127.516,0,0,0,241.885,266.994Z" transform="translate(-139.948 -234.994)"/>
    <path id="Path_1430" data-name="Path 1430" d="M215.841,273.973a1,1,0,0,1,.951.691l2.924,9h9.461a1,1,0,0,1,.588,1.809l-7.654,5.561,2.924,9a1,1,0,0,1-1.539,1.118l-7.654-5.561-7.654,5.561a1,1,0,0,1-1.539-1.118l2.924-9-7.654-5.561a1,1,0,0,1,.588-1.809h9.461l2.924-9A1,1,0,0,1,215.841,273.973ZM226.1,285.661h-7.11a1,1,0,0,1-.951-.691l-2.2-6.762-2.2,6.762a1,1,0,0,1-.951.691h-7.11l5.752,4.179a1,1,0,0,1,.363,1.118l-2.2,6.762,5.752-4.179a1,1,0,0,1,1.176,0l5.752,4.179-2.2-6.762a1,1,0,0,1,.363-1.118Z" transform="translate(-139.948 -234.994)"/>
    <path id="Path_1431" data-name="Path 1431" d="M219.9,323.951h-8.09a3.023,3.023,0,0,1-3.02-3.02v-3.45a1,1,0,0,1,2,0v3.45a1.009,1.009,0,0,0,1.02,1.02h8.09a1,1,0,0,0,1-.99v-3.47a1,1,0,0,1,2,0v3.47A3,3,0,0,1,219.9,323.951Z" transform="translate(-139.948 -234.994)"/>
    <path id="Rectangle_694" data-name="Rectangle 694" d="M0-1H27.371a1,1,0,0,1,1,1V6.63a1,1,0,0,1-1,1H0a1,1,0,0,1-1-1V0A1,1,0,0,1,0-1ZM26.371,1H1V5.63H26.371Z" transform="translate(62.208 100.713)"/>
    <path id="Path_1432" data-name="Path 1432" d="M236.767,356.8h-41.85a1,1,0,0,1-.976-1.218l3-13.462a1,1,0,0,1,.976-.782h35.85a1,1,0,0,1,.976.782l3,13.462a1,1,0,0,1-.976,1.218Zm-40.6-2h39.355l-2.554-11.462H198.718Z" transform="translate(-139.948 -234.994)"/>
  </g>
</svg>
